<svg xmlns="http://www.w3.org/2000/svg" viewBox="0 0 200 200" width="200" height="200">
  <defs>
    <linearGradient id="leafGradient" x1="0%" y1="0%" x2="100%" y2="100%">
      <stop offset="0%" style="stop-color:#2e7d32;stop-opacity:1" />
      <stop offset="100%" style="stop-color:#1b5e20;stop-opacity:1" />
    </linearGradient>
  </defs>
  
  <!-- Fondo circular -->
  <circle cx="100" cy="100" r="95" fill="#f5f5f5" stroke="#2e7d32" stroke-width="3"/>
  
  <!-- Hoja principal -->
  <path d="M100 40 C120 45, 140 65, 145 90 C140 115, 120 135, 100 140 C80 135, 60 115, 55 90 C60 65, 80 45, 100 40 Z" 
        fill="url(#leafGradient)"/>
  
  <!-- Nervadura central -->
  <line x1="100" y1="45" x2="100" y2="135" stroke="#1b5e20" stroke-width="2"/>
  
  <!-- Nervaduras laterales -->
  <path d="M100 60 Q120 70, 130 85" stroke="#1b5e20" stroke-width="1.5" fill="none"/>
  <path d="M100 60 Q80 70, 70 85" stroke="#1b5e20" stroke-width="1.5" fill="none"/>
  <path d="M100 90 Q115 95, 125 105" stroke="#1b5e20" stroke-width="1.5" fill="none"/>
  <path d="M100 90 Q85 95, 75 105" stroke="#1b5e20" stroke-width="1.5" fill="none"/>
  
  <!-- Tallo -->
  <rect x="98" y="140" width="4" height="20" fill="#2e7d32"/>
  
  <!-- Texto en la parte inferior -->
  <text x="100" y="180" font-family="Poppins, Arial, sans-serif" font-size="16" font-weight="600" 
        fill="#2e7d32" text-anchor="middle">GALERÍA VERDE</text>
</svg>